<?xml version="1.0" encoding="utf-8"?>
<!-- Generator: Adobe Illustrator 22.1.0, SVG Export Plug-In . SVG Version: 6.00 Build 0)  -->
<svg version="1.1" xmlns="http://www.w3.org/2000/svg" xmlns:xlink="http://www.w3.org/1999/xlink" x="0px" y="0px"
	 viewBox="0 0 55.5 55.5" style="enable-background:new 0 0 55.5 55.5;" xml:space="preserve">
<style type="text/css">
	.st0{fill:url(#SVGID_1_);stroke:#0B464C;stroke-width:0.5;stroke-miterlimit:10;}
	.st1{fill:none;stroke:#FFFFFF;stroke-width:2;stroke-miterlimit:10;}
	.st2{fill:none;stroke:#FFFFFF;stroke-width:0.75;stroke-miterlimit:10;}
</style>
<g id="Layer_2">
	<linearGradient id="SVGID_1_" gradientUnits="userSpaceOnUse" x1="27.75" y1="0.25" x2="27.75" y2="55.25">
		<stop  offset="0" style="stop-color:#19A9BF"/>
		<stop  offset="1" style="stop-color:#046472"/>
	</linearGradient>
	<path class="st0" d="M43.2,55.2h-31c-6.6,0-12-5.4-12-12v-31c0-6.6,5.4-12,12-12h31c6.6,0,12,5.4,12,12v31
		C55.2,49.8,49.8,55.2,43.2,55.2z"/>
</g>
<g id="Layer_1">
	<g>
		<path class="st1" d="M37.9,44.2H17.6c-0.5,0-1-0.5-1-1V12.3c0-0.6,0.5-1,1-1h20.3c0.5,0,1,0.4,1,1v30.9
			C38.9,43.7,38.4,44.2,37.9,44.2z"/>
		<path class="st1" d="M38.9,18.3c0-0.6,0.4-1,1-1h4c0.5,0,1,0.4,1,1v24.9c0,0.5-0.5,1-1,1h-6"/>
		<path class="st1" d="M17.6,44.2h-6c-0.6,0-1-0.5-1-1V18.3c0-0.6,0.4-1,1-1h4c0.6,0,1,0.4,1,1"/>
		<rect x="24.9" y="34.8" class="st1" width="5.6" height="9.4"/>
		<rect x="20.5" y="15.6" class="st2" width="3.7" height="3.7"/>
		<rect x="25.9" y="15.6" class="st2" width="3.7" height="3.7"/>
		<rect x="31.3" y="15.6" class="st2" width="3.7" height="3.7"/>
		<rect x="20.5" y="22.3" class="st2" width="3.7" height="3.7"/>
		<rect x="25.9" y="22.3" class="st2" width="3.7" height="3.7"/>
		<rect x="31.3" y="22.3" class="st2" width="3.7" height="3.7"/>
	</g>
</g>
</svg>
